<svg xmlns="http://www.w3.org/2000/svg" viewBox="0 0 900 600">
  <defs>
    <linearGradient id="bg" x1="0" y1="0" x2="1" y2="1">
      <stop offset="0%" stop-color="#0366d6"/>
      <stop offset="100%" stop-color="#00b894"/>
    </linearGradient>
    <linearGradient id="accent" x1="0" y1="0" x2="1" y2="1">
      <stop offset="0%" stop-color="#f8c630"/>
      <stop offset="100%" stop-color="#ff7f50"/>
    </linearGradient>
  </defs>
  <rect width="900" height="600" rx="40" fill="url(#bg)"/>
  <rect x="90" y="120" width="220" height="280" rx="24" fill="rgba(255,255,255,0.18)"/>
  <rect x="160" y="190" width="100" height="40" rx="14" fill="url(#accent)"/>
  <rect x="160" y="260" width="100" height="26" rx="10" fill="rgba(255,255,255,0.7)"/>
  <rect x="160" y="310" width="100" height="26" rx="10" fill="rgba(255,255,255,0.7)"/>
  <rect x="360" y="150" width="400" height="40" rx="20" fill="rgba(255,255,255,0.16)"/>
  <rect x="360" y="220" width="400" height="40" rx="20" fill="rgba(255,255,255,0.16)"/>
  <rect x="360" y="290" width="320" height="40" rx="20" fill="rgba(255,255,255,0.16)"/>
  <rect x="360" y="360" width="380" height="40" rx="20" fill="rgba(255,255,255,0.16)"/>
  <path d="M660 460h-160a20 20 0 0 1-20-20V300a20 20 0 0 1 20-20h160a20 20 0 0 1 20 20v140a20 20 0 0 1-20 20Z" fill="rgba(255,255,255,0.22)"/>
  <circle cx="710" cy="340" r="30" fill="url(#accent)"/>
  <path d="M690 335h40v10h-40z" fill="#fff"/>
  <path d="M700 325v30" stroke="#fff" stroke-width="8" stroke-linecap="round"/>
  <text x="70" y="490" font-family="Inter, sans-serif" font-size="70" fill="#fff" font-weight="700">E-Barangay</text>
  <text x="70" y="560" font-family="Inter, sans-serif" font-size="32" fill="rgba(255,255,255,0.85)">Digital barangay service</text>
</svg>
